<svg xmlns="http://www.w3.org/2000/svg" version="1.1" viewBox="-15 -15 130 130">
    <circle cx="50" cy="50" r="60" fill="{{ secondary }}" />
    <path fill="{{ primary }}" d="m50 27.422-31.039 23.684v34.371h19.062v-23.844c0-0.55078 0.44922-1 1-1h21.957c0.55078 0 1 0.44922 1 1v23.844h19.059v-34.371zm-16.348-2.9336v-8.1055h-10.469v16.094zm-24.746 31.777 8.3906-6.4023 0.10938-0.085937 31.977-24.398c0.34766-0.27344 0.85156-0.28906 1.2188-0.007812l31.98 24.402 0.11328 0.085937 8.3906 6.4023 5.0078-6.5664-46.102-35.176-14.688 11.207-0.10938 0.082032-12.363 9.4336-0.10156 0.078124-18.84 14.375 5.0078 6.5664z"/>
</svg>